%TF.GenerationSoftware,KiCad,Pcbnew,(6.0.4)*%
%TF.CreationDate,2022-03-31T08:58:10-07:00*%
%TF.ProjectId,hip-factor-3-l,6869702d-6661-4637-946f-722d332d6c2e,rev?*%
%TF.SameCoordinates,Original*%
%TF.FileFunction,Legend,Top*%
%TF.FilePolarity,Positive*%
%FSLAX46Y46*%
G04 Gerber Fmt 4.6, Leading zero omitted, Abs format (unit mm)*
G04 Created by KiCad (PCBNEW (6.0.4)) date 2022-03-31 08:58:10*
%MOMM*%
%LPD*%
G01*
G04 APERTURE LIST*
%ADD10C,0.150000*%
%ADD11C,0.120000*%
G04 APERTURE END LIST*
D10*
%TO.C,SW9*%
X57380761Y-60333333D02*
X57428380Y-60190476D01*
X57428380Y-59952380D01*
X57380761Y-59857142D01*
X57333142Y-59809523D01*
X57237904Y-59761904D01*
X57142666Y-59761904D01*
X57047428Y-59809523D01*
X56999809Y-59857142D01*
X56952190Y-59952380D01*
X56904571Y-60142857D01*
X56856952Y-60238095D01*
X56809333Y-60285714D01*
X56714095Y-60333333D01*
X56618857Y-60333333D01*
X56523619Y-60285714D01*
X56476000Y-60238095D01*
X56428380Y-60142857D01*
X56428380Y-59904761D01*
X56476000Y-59761904D01*
X56428380Y-59428571D02*
X57428380Y-59190476D01*
X56714095Y-59000000D01*
X57428380Y-58809523D01*
X56428380Y-58571428D01*
X57428380Y-58142857D02*
X57428380Y-57952380D01*
X57380761Y-57857142D01*
X57333142Y-57809523D01*
X57190285Y-57714285D01*
X56999809Y-57666666D01*
X56618857Y-57666666D01*
X56523619Y-57714285D01*
X56476000Y-57761904D01*
X56428380Y-57857142D01*
X56428380Y-58047619D01*
X56476000Y-58142857D01*
X56523619Y-58190476D01*
X56618857Y-58238095D01*
X56856952Y-58238095D01*
X56952190Y-58190476D01*
X56999809Y-58142857D01*
X57047428Y-58047619D01*
X57047428Y-57857142D01*
X56999809Y-57761904D01*
X56952190Y-57714285D01*
X56856952Y-57666666D01*
%TO.C,SW25*%
X114280761Y-98809523D02*
X114328380Y-98666666D01*
X114328380Y-98428571D01*
X114280761Y-98333333D01*
X114233142Y-98285714D01*
X114137904Y-98238095D01*
X114042666Y-98238095D01*
X113947428Y-98285714D01*
X113899809Y-98333333D01*
X113852190Y-98428571D01*
X113804571Y-98619047D01*
X113756952Y-98714285D01*
X113709333Y-98761904D01*
X113614095Y-98809523D01*
X113518857Y-98809523D01*
X113423619Y-98761904D01*
X113376000Y-98714285D01*
X113328380Y-98619047D01*
X113328380Y-98380952D01*
X113376000Y-98238095D01*
X113328380Y-97904761D02*
X114328380Y-97666666D01*
X113614095Y-97476190D01*
X114328380Y-97285714D01*
X113328380Y-97047619D01*
X113423619Y-96714285D02*
X113376000Y-96666666D01*
X113328380Y-96571428D01*
X113328380Y-96333333D01*
X113376000Y-96238095D01*
X113423619Y-96190476D01*
X113518857Y-96142857D01*
X113614095Y-96142857D01*
X113756952Y-96190476D01*
X114328380Y-96761904D01*
X114328380Y-96142857D01*
X113328380Y-95238095D02*
X113328380Y-95714285D01*
X113804571Y-95761904D01*
X113756952Y-95714285D01*
X113709333Y-95619047D01*
X113709333Y-95380952D01*
X113756952Y-95285714D01*
X113804571Y-95238095D01*
X113899809Y-95190476D01*
X114137904Y-95190476D01*
X114233142Y-95238095D01*
X114280761Y-95285714D01*
X114328380Y-95380952D01*
X114328380Y-95619047D01*
X114280761Y-95714285D01*
X114233142Y-95761904D01*
%TO.C,SW10*%
X81030761Y-60809523D02*
X81078380Y-60666666D01*
X81078380Y-60428571D01*
X81030761Y-60333333D01*
X80983142Y-60285714D01*
X80887904Y-60238095D01*
X80792666Y-60238095D01*
X80697428Y-60285714D01*
X80649809Y-60333333D01*
X80602190Y-60428571D01*
X80554571Y-60619047D01*
X80506952Y-60714285D01*
X80459333Y-60761904D01*
X80364095Y-60809523D01*
X80268857Y-60809523D01*
X80173619Y-60761904D01*
X80126000Y-60714285D01*
X80078380Y-60619047D01*
X80078380Y-60380952D01*
X80126000Y-60238095D01*
X80078380Y-59904761D02*
X81078380Y-59666666D01*
X80364095Y-59476190D01*
X81078380Y-59285714D01*
X80078380Y-59047619D01*
X81078380Y-58142857D02*
X81078380Y-58714285D01*
X81078380Y-58428571D02*
X80078380Y-58428571D01*
X80221238Y-58523809D01*
X80316476Y-58619047D01*
X80364095Y-58714285D01*
X80078380Y-57523809D02*
X80078380Y-57428571D01*
X80126000Y-57333333D01*
X80173619Y-57285714D01*
X80268857Y-57238095D01*
X80459333Y-57190476D01*
X80697428Y-57190476D01*
X80887904Y-57238095D01*
X80983142Y-57285714D01*
X81030761Y-57333333D01*
X81078380Y-57428571D01*
X81078380Y-57523809D01*
X81030761Y-57619047D01*
X80983142Y-57666666D01*
X80887904Y-57714285D01*
X80697428Y-57761904D01*
X80459333Y-57761904D01*
X80268857Y-57714285D01*
X80173619Y-57666666D01*
X80126000Y-57619047D01*
X80078380Y-57523809D01*
%TO.C,SW13*%
X138030761Y-60809523D02*
X138078380Y-60666666D01*
X138078380Y-60428571D01*
X138030761Y-60333333D01*
X137983142Y-60285714D01*
X137887904Y-60238095D01*
X137792666Y-60238095D01*
X137697428Y-60285714D01*
X137649809Y-60333333D01*
X137602190Y-60428571D01*
X137554571Y-60619047D01*
X137506952Y-60714285D01*
X137459333Y-60761904D01*
X137364095Y-60809523D01*
X137268857Y-60809523D01*
X137173619Y-60761904D01*
X137126000Y-60714285D01*
X137078380Y-60619047D01*
X137078380Y-60380952D01*
X137126000Y-60238095D01*
X137078380Y-59904761D02*
X138078380Y-59666666D01*
X137364095Y-59476190D01*
X138078380Y-59285714D01*
X137078380Y-59047619D01*
X138078380Y-58142857D02*
X138078380Y-58714285D01*
X138078380Y-58428571D02*
X137078380Y-58428571D01*
X137221238Y-58523809D01*
X137316476Y-58619047D01*
X137364095Y-58714285D01*
X137078380Y-57809523D02*
X137078380Y-57190476D01*
X137459333Y-57523809D01*
X137459333Y-57380952D01*
X137506952Y-57285714D01*
X137554571Y-57238095D01*
X137649809Y-57190476D01*
X137887904Y-57190476D01*
X137983142Y-57238095D01*
X138030761Y-57285714D01*
X138078380Y-57380952D01*
X138078380Y-57666666D01*
X138030761Y-57761904D01*
X137983142Y-57809523D01*
%TO.C,SW5*%
X128530761Y-41333333D02*
X128578380Y-41190476D01*
X128578380Y-40952380D01*
X128530761Y-40857142D01*
X128483142Y-40809523D01*
X128387904Y-40761904D01*
X128292666Y-40761904D01*
X128197428Y-40809523D01*
X128149809Y-40857142D01*
X128102190Y-40952380D01*
X128054571Y-41142857D01*
X128006952Y-41238095D01*
X127959333Y-41285714D01*
X127864095Y-41333333D01*
X127768857Y-41333333D01*
X127673619Y-41285714D01*
X127626000Y-41238095D01*
X127578380Y-41142857D01*
X127578380Y-40904761D01*
X127626000Y-40761904D01*
X127578380Y-40428571D02*
X128578380Y-40190476D01*
X127864095Y-40000000D01*
X128578380Y-39809523D01*
X127578380Y-39571428D01*
X127578380Y-38714285D02*
X127578380Y-39190476D01*
X128054571Y-39238095D01*
X128006952Y-39190476D01*
X127959333Y-39095238D01*
X127959333Y-38857142D01*
X128006952Y-38761904D01*
X128054571Y-38714285D01*
X128149809Y-38666666D01*
X128387904Y-38666666D01*
X128483142Y-38714285D01*
X128530761Y-38761904D01*
X128578380Y-38857142D01*
X128578380Y-39095238D01*
X128530761Y-39190476D01*
X128483142Y-39238095D01*
%TO.C,SW34*%
X171280761Y-117809523D02*
X171328380Y-117666666D01*
X171328380Y-117428571D01*
X171280761Y-117333333D01*
X171233142Y-117285714D01*
X171137904Y-117238095D01*
X171042666Y-117238095D01*
X170947428Y-117285714D01*
X170899809Y-117333333D01*
X170852190Y-117428571D01*
X170804571Y-117619047D01*
X170756952Y-117714285D01*
X170709333Y-117761904D01*
X170614095Y-117809523D01*
X170518857Y-117809523D01*
X170423619Y-117761904D01*
X170376000Y-117714285D01*
X170328380Y-117619047D01*
X170328380Y-117380952D01*
X170376000Y-117238095D01*
X170328380Y-116904761D02*
X171328380Y-116666666D01*
X170614095Y-116476190D01*
X171328380Y-116285714D01*
X170328380Y-116047619D01*
X170328380Y-115761904D02*
X170328380Y-115142857D01*
X170709333Y-115476190D01*
X170709333Y-115333333D01*
X170756952Y-115238095D01*
X170804571Y-115190476D01*
X170899809Y-115142857D01*
X171137904Y-115142857D01*
X171233142Y-115190476D01*
X171280761Y-115238095D01*
X171328380Y-115333333D01*
X171328380Y-115619047D01*
X171280761Y-115714285D01*
X171233142Y-115761904D01*
X170661714Y-114285714D02*
X171328380Y-114285714D01*
X170280761Y-114523809D02*
X170995047Y-114761904D01*
X170995047Y-114142857D01*
%TO.C,SW8*%
X33530761Y-60333333D02*
X33578380Y-60190476D01*
X33578380Y-59952380D01*
X33530761Y-59857142D01*
X33483142Y-59809523D01*
X33387904Y-59761904D01*
X33292666Y-59761904D01*
X33197428Y-59809523D01*
X33149809Y-59857142D01*
X33102190Y-59952380D01*
X33054571Y-60142857D01*
X33006952Y-60238095D01*
X32959333Y-60285714D01*
X32864095Y-60333333D01*
X32768857Y-60333333D01*
X32673619Y-60285714D01*
X32626000Y-60238095D01*
X32578380Y-60142857D01*
X32578380Y-59904761D01*
X32626000Y-59761904D01*
X32578380Y-59428571D02*
X33578380Y-59190476D01*
X32864095Y-59000000D01*
X33578380Y-58809523D01*
X32578380Y-58571428D01*
X33006952Y-58047619D02*
X32959333Y-58142857D01*
X32911714Y-58190476D01*
X32816476Y-58238095D01*
X32768857Y-58238095D01*
X32673619Y-58190476D01*
X32626000Y-58142857D01*
X32578380Y-58047619D01*
X32578380Y-57857142D01*
X32626000Y-57761904D01*
X32673619Y-57714285D01*
X32768857Y-57666666D01*
X32816476Y-57666666D01*
X32911714Y-57714285D01*
X32959333Y-57761904D01*
X33006952Y-57857142D01*
X33006952Y-58047619D01*
X33054571Y-58142857D01*
X33102190Y-58190476D01*
X33197428Y-58238095D01*
X33387904Y-58238095D01*
X33483142Y-58190476D01*
X33530761Y-58142857D01*
X33578380Y-58047619D01*
X33578380Y-57857142D01*
X33530761Y-57761904D01*
X33483142Y-57714285D01*
X33387904Y-57666666D01*
X33197428Y-57666666D01*
X33102190Y-57714285D01*
X33054571Y-57761904D01*
X33006952Y-57857142D01*
%TO.C,SW18*%
X104780761Y-79809523D02*
X104828380Y-79666666D01*
X104828380Y-79428571D01*
X104780761Y-79333333D01*
X104733142Y-79285714D01*
X104637904Y-79238095D01*
X104542666Y-79238095D01*
X104447428Y-79285714D01*
X104399809Y-79333333D01*
X104352190Y-79428571D01*
X104304571Y-79619047D01*
X104256952Y-79714285D01*
X104209333Y-79761904D01*
X104114095Y-79809523D01*
X104018857Y-79809523D01*
X103923619Y-79761904D01*
X103876000Y-79714285D01*
X103828380Y-79619047D01*
X103828380Y-79380952D01*
X103876000Y-79238095D01*
X103828380Y-78904761D02*
X104828380Y-78666666D01*
X104114095Y-78476190D01*
X104828380Y-78285714D01*
X103828380Y-78047619D01*
X104828380Y-77142857D02*
X104828380Y-77714285D01*
X104828380Y-77428571D02*
X103828380Y-77428571D01*
X103971238Y-77523809D01*
X104066476Y-77619047D01*
X104114095Y-77714285D01*
X104256952Y-76571428D02*
X104209333Y-76666666D01*
X104161714Y-76714285D01*
X104066476Y-76761904D01*
X104018857Y-76761904D01*
X103923619Y-76714285D01*
X103876000Y-76666666D01*
X103828380Y-76571428D01*
X103828380Y-76380952D01*
X103876000Y-76285714D01*
X103923619Y-76238095D01*
X104018857Y-76190476D01*
X104066476Y-76190476D01*
X104161714Y-76238095D01*
X104209333Y-76285714D01*
X104256952Y-76380952D01*
X104256952Y-76571428D01*
X104304571Y-76666666D01*
X104352190Y-76714285D01*
X104447428Y-76761904D01*
X104637904Y-76761904D01*
X104733142Y-76714285D01*
X104780761Y-76666666D01*
X104828380Y-76571428D01*
X104828380Y-76380952D01*
X104780761Y-76285714D01*
X104733142Y-76238095D01*
X104637904Y-76190476D01*
X104447428Y-76190476D01*
X104352190Y-76238095D01*
X104304571Y-76285714D01*
X104256952Y-76380952D01*
%TO.C,SW32*%
X102405761Y-117809523D02*
X102453380Y-117666666D01*
X102453380Y-117428571D01*
X102405761Y-117333333D01*
X102358142Y-117285714D01*
X102262904Y-117238095D01*
X102167666Y-117238095D01*
X102072428Y-117285714D01*
X102024809Y-117333333D01*
X101977190Y-117428571D01*
X101929571Y-117619047D01*
X101881952Y-117714285D01*
X101834333Y-117761904D01*
X101739095Y-117809523D01*
X101643857Y-117809523D01*
X101548619Y-117761904D01*
X101501000Y-117714285D01*
X101453380Y-117619047D01*
X101453380Y-117380952D01*
X101501000Y-117238095D01*
X101453380Y-116904761D02*
X102453380Y-116666666D01*
X101739095Y-116476190D01*
X102453380Y-116285714D01*
X101453380Y-116047619D01*
X101453380Y-115761904D02*
X101453380Y-115142857D01*
X101834333Y-115476190D01*
X101834333Y-115333333D01*
X101881952Y-115238095D01*
X101929571Y-115190476D01*
X102024809Y-115142857D01*
X102262904Y-115142857D01*
X102358142Y-115190476D01*
X102405761Y-115238095D01*
X102453380Y-115333333D01*
X102453380Y-115619047D01*
X102405761Y-115714285D01*
X102358142Y-115761904D01*
X101548619Y-114761904D02*
X101501000Y-114714285D01*
X101453380Y-114619047D01*
X101453380Y-114380952D01*
X101501000Y-114285714D01*
X101548619Y-114238095D01*
X101643857Y-114190476D01*
X101739095Y-114190476D01*
X101881952Y-114238095D01*
X102453380Y-114809523D01*
X102453380Y-114190476D01*
%TO.C,SW27*%
X152280761Y-98809523D02*
X152328380Y-98666666D01*
X152328380Y-98428571D01*
X152280761Y-98333333D01*
X152233142Y-98285714D01*
X152137904Y-98238095D01*
X152042666Y-98238095D01*
X151947428Y-98285714D01*
X151899809Y-98333333D01*
X151852190Y-98428571D01*
X151804571Y-98619047D01*
X151756952Y-98714285D01*
X151709333Y-98761904D01*
X151614095Y-98809523D01*
X151518857Y-98809523D01*
X151423619Y-98761904D01*
X151376000Y-98714285D01*
X151328380Y-98619047D01*
X151328380Y-98380952D01*
X151376000Y-98238095D01*
X151328380Y-97904761D02*
X152328380Y-97666666D01*
X151614095Y-97476190D01*
X152328380Y-97285714D01*
X151328380Y-97047619D01*
X151423619Y-96714285D02*
X151376000Y-96666666D01*
X151328380Y-96571428D01*
X151328380Y-96333333D01*
X151376000Y-96238095D01*
X151423619Y-96190476D01*
X151518857Y-96142857D01*
X151614095Y-96142857D01*
X151756952Y-96190476D01*
X152328380Y-96761904D01*
X152328380Y-96142857D01*
X151328380Y-95809523D02*
X151328380Y-95142857D01*
X152328380Y-95571428D01*
%TO.C,SW1*%
X52530761Y-41333333D02*
X52578380Y-41190476D01*
X52578380Y-40952380D01*
X52530761Y-40857142D01*
X52483142Y-40809523D01*
X52387904Y-40761904D01*
X52292666Y-40761904D01*
X52197428Y-40809523D01*
X52149809Y-40857142D01*
X52102190Y-40952380D01*
X52054571Y-41142857D01*
X52006952Y-41238095D01*
X51959333Y-41285714D01*
X51864095Y-41333333D01*
X51768857Y-41333333D01*
X51673619Y-41285714D01*
X51626000Y-41238095D01*
X51578380Y-41142857D01*
X51578380Y-40904761D01*
X51626000Y-40761904D01*
X51578380Y-40428571D02*
X52578380Y-40190476D01*
X51864095Y-40000000D01*
X52578380Y-39809523D01*
X51578380Y-39571428D01*
X52578380Y-38666666D02*
X52578380Y-39238095D01*
X52578380Y-38952380D02*
X51578380Y-38952380D01*
X51721238Y-39047619D01*
X51816476Y-39142857D01*
X51864095Y-39238095D01*
%TO.C,SW21*%
X161780761Y-79809523D02*
X161828380Y-79666666D01*
X161828380Y-79428571D01*
X161780761Y-79333333D01*
X161733142Y-79285714D01*
X161637904Y-79238095D01*
X161542666Y-79238095D01*
X161447428Y-79285714D01*
X161399809Y-79333333D01*
X161352190Y-79428571D01*
X161304571Y-79619047D01*
X161256952Y-79714285D01*
X161209333Y-79761904D01*
X161114095Y-79809523D01*
X161018857Y-79809523D01*
X160923619Y-79761904D01*
X160876000Y-79714285D01*
X160828380Y-79619047D01*
X160828380Y-79380952D01*
X160876000Y-79238095D01*
X160828380Y-78904761D02*
X161828380Y-78666666D01*
X161114095Y-78476190D01*
X161828380Y-78285714D01*
X160828380Y-78047619D01*
X160923619Y-77714285D02*
X160876000Y-77666666D01*
X160828380Y-77571428D01*
X160828380Y-77333333D01*
X160876000Y-77238095D01*
X160923619Y-77190476D01*
X161018857Y-77142857D01*
X161114095Y-77142857D01*
X161256952Y-77190476D01*
X161828380Y-77761904D01*
X161828380Y-77142857D01*
X161828380Y-76190476D02*
X161828380Y-76761904D01*
X161828380Y-76476190D02*
X160828380Y-76476190D01*
X160971238Y-76571428D01*
X161066476Y-76666666D01*
X161114095Y-76761904D01*
%TO.C,SW17*%
X85780761Y-79809523D02*
X85828380Y-79666666D01*
X85828380Y-79428571D01*
X85780761Y-79333333D01*
X85733142Y-79285714D01*
X85637904Y-79238095D01*
X85542666Y-79238095D01*
X85447428Y-79285714D01*
X85399809Y-79333333D01*
X85352190Y-79428571D01*
X85304571Y-79619047D01*
X85256952Y-79714285D01*
X85209333Y-79761904D01*
X85114095Y-79809523D01*
X85018857Y-79809523D01*
X84923619Y-79761904D01*
X84876000Y-79714285D01*
X84828380Y-79619047D01*
X84828380Y-79380952D01*
X84876000Y-79238095D01*
X84828380Y-78904761D02*
X85828380Y-78666666D01*
X85114095Y-78476190D01*
X85828380Y-78285714D01*
X84828380Y-78047619D01*
X85828380Y-77142857D02*
X85828380Y-77714285D01*
X85828380Y-77428571D02*
X84828380Y-77428571D01*
X84971238Y-77523809D01*
X85066476Y-77619047D01*
X85114095Y-77714285D01*
X84828380Y-76809523D02*
X84828380Y-76142857D01*
X85828380Y-76571428D01*
%TO.C,SW14*%
X157030761Y-60809523D02*
X157078380Y-60666666D01*
X157078380Y-60428571D01*
X157030761Y-60333333D01*
X156983142Y-60285714D01*
X156887904Y-60238095D01*
X156792666Y-60238095D01*
X156697428Y-60285714D01*
X156649809Y-60333333D01*
X156602190Y-60428571D01*
X156554571Y-60619047D01*
X156506952Y-60714285D01*
X156459333Y-60761904D01*
X156364095Y-60809523D01*
X156268857Y-60809523D01*
X156173619Y-60761904D01*
X156126000Y-60714285D01*
X156078380Y-60619047D01*
X156078380Y-60380952D01*
X156126000Y-60238095D01*
X156078380Y-59904761D02*
X157078380Y-59666666D01*
X156364095Y-59476190D01*
X157078380Y-59285714D01*
X156078380Y-59047619D01*
X157078380Y-58142857D02*
X157078380Y-58714285D01*
X157078380Y-58428571D02*
X156078380Y-58428571D01*
X156221238Y-58523809D01*
X156316476Y-58619047D01*
X156364095Y-58714285D01*
X156411714Y-57285714D02*
X157078380Y-57285714D01*
X156030761Y-57523809D02*
X156745047Y-57761904D01*
X156745047Y-57142857D01*
%TO.C,J1*%
X205406666Y-32682380D02*
X205406666Y-33396666D01*
X205359047Y-33539523D01*
X205263809Y-33634761D01*
X205120952Y-33682380D01*
X205025714Y-33682380D01*
X206406666Y-33682380D02*
X205835238Y-33682380D01*
X206120952Y-33682380D02*
X206120952Y-32682380D01*
X206025714Y-32825238D01*
X205930476Y-32920476D01*
X205835238Y-32968095D01*
%TO.C,SW29*%
X33530761Y-117809523D02*
X33578380Y-117666666D01*
X33578380Y-117428571D01*
X33530761Y-117333333D01*
X33483142Y-117285714D01*
X33387904Y-117238095D01*
X33292666Y-117238095D01*
X33197428Y-117285714D01*
X33149809Y-117333333D01*
X33102190Y-117428571D01*
X33054571Y-117619047D01*
X33006952Y-117714285D01*
X32959333Y-117761904D01*
X32864095Y-117809523D01*
X32768857Y-117809523D01*
X32673619Y-117761904D01*
X32626000Y-117714285D01*
X32578380Y-117619047D01*
X32578380Y-117380952D01*
X32626000Y-117238095D01*
X32578380Y-116904761D02*
X33578380Y-116666666D01*
X32864095Y-116476190D01*
X33578380Y-116285714D01*
X32578380Y-116047619D01*
X32673619Y-115714285D02*
X32626000Y-115666666D01*
X32578380Y-115571428D01*
X32578380Y-115333333D01*
X32626000Y-115238095D01*
X32673619Y-115190476D01*
X32768857Y-115142857D01*
X32864095Y-115142857D01*
X33006952Y-115190476D01*
X33578380Y-115761904D01*
X33578380Y-115142857D01*
X33578380Y-114666666D02*
X33578380Y-114476190D01*
X33530761Y-114380952D01*
X33483142Y-114333333D01*
X33340285Y-114238095D01*
X33149809Y-114190476D01*
X32768857Y-114190476D01*
X32673619Y-114238095D01*
X32626000Y-114285714D01*
X32578380Y-114380952D01*
X32578380Y-114571428D01*
X32626000Y-114666666D01*
X32673619Y-114714285D01*
X32768857Y-114761904D01*
X33006952Y-114761904D01*
X33102190Y-114714285D01*
X33149809Y-114666666D01*
X33197428Y-114571428D01*
X33197428Y-114380952D01*
X33149809Y-114285714D01*
X33102190Y-114238095D01*
X33006952Y-114190476D01*
%TO.C,SW31*%
X78655761Y-117809523D02*
X78703380Y-117666666D01*
X78703380Y-117428571D01*
X78655761Y-117333333D01*
X78608142Y-117285714D01*
X78512904Y-117238095D01*
X78417666Y-117238095D01*
X78322428Y-117285714D01*
X78274809Y-117333333D01*
X78227190Y-117428571D01*
X78179571Y-117619047D01*
X78131952Y-117714285D01*
X78084333Y-117761904D01*
X77989095Y-117809523D01*
X77893857Y-117809523D01*
X77798619Y-117761904D01*
X77751000Y-117714285D01*
X77703380Y-117619047D01*
X77703380Y-117380952D01*
X77751000Y-117238095D01*
X77703380Y-116904761D02*
X78703380Y-116666666D01*
X77989095Y-116476190D01*
X78703380Y-116285714D01*
X77703380Y-116047619D01*
X77703380Y-115761904D02*
X77703380Y-115142857D01*
X78084333Y-115476190D01*
X78084333Y-115333333D01*
X78131952Y-115238095D01*
X78179571Y-115190476D01*
X78274809Y-115142857D01*
X78512904Y-115142857D01*
X78608142Y-115190476D01*
X78655761Y-115238095D01*
X78703380Y-115333333D01*
X78703380Y-115619047D01*
X78655761Y-115714285D01*
X78608142Y-115761904D01*
X78703380Y-114190476D02*
X78703380Y-114761904D01*
X78703380Y-114476190D02*
X77703380Y-114476190D01*
X77846238Y-114571428D01*
X77941476Y-114666666D01*
X77989095Y-114761904D01*
%TO.C,SW23*%
X64405761Y-98809523D02*
X64453380Y-98666666D01*
X64453380Y-98428571D01*
X64405761Y-98333333D01*
X64358142Y-98285714D01*
X64262904Y-98238095D01*
X64167666Y-98238095D01*
X64072428Y-98285714D01*
X64024809Y-98333333D01*
X63977190Y-98428571D01*
X63929571Y-98619047D01*
X63881952Y-98714285D01*
X63834333Y-98761904D01*
X63739095Y-98809523D01*
X63643857Y-98809523D01*
X63548619Y-98761904D01*
X63501000Y-98714285D01*
X63453380Y-98619047D01*
X63453380Y-98380952D01*
X63501000Y-98238095D01*
X63453380Y-97904761D02*
X64453380Y-97666666D01*
X63739095Y-97476190D01*
X64453380Y-97285714D01*
X63453380Y-97047619D01*
X63548619Y-96714285D02*
X63501000Y-96666666D01*
X63453380Y-96571428D01*
X63453380Y-96333333D01*
X63501000Y-96238095D01*
X63548619Y-96190476D01*
X63643857Y-96142857D01*
X63739095Y-96142857D01*
X63881952Y-96190476D01*
X64453380Y-96761904D01*
X64453380Y-96142857D01*
X63453380Y-95809523D02*
X63453380Y-95190476D01*
X63834333Y-95523809D01*
X63834333Y-95380952D01*
X63881952Y-95285714D01*
X63929571Y-95238095D01*
X64024809Y-95190476D01*
X64262904Y-95190476D01*
X64358142Y-95238095D01*
X64405761Y-95285714D01*
X64453380Y-95380952D01*
X64453380Y-95666666D01*
X64405761Y-95761904D01*
X64358142Y-95809523D01*
%TO.C,SW12*%
X119030761Y-60809523D02*
X119078380Y-60666666D01*
X119078380Y-60428571D01*
X119030761Y-60333333D01*
X118983142Y-60285714D01*
X118887904Y-60238095D01*
X118792666Y-60238095D01*
X118697428Y-60285714D01*
X118649809Y-60333333D01*
X118602190Y-60428571D01*
X118554571Y-60619047D01*
X118506952Y-60714285D01*
X118459333Y-60761904D01*
X118364095Y-60809523D01*
X118268857Y-60809523D01*
X118173619Y-60761904D01*
X118126000Y-60714285D01*
X118078380Y-60619047D01*
X118078380Y-60380952D01*
X118126000Y-60238095D01*
X118078380Y-59904761D02*
X119078380Y-59666666D01*
X118364095Y-59476190D01*
X119078380Y-59285714D01*
X118078380Y-59047619D01*
X119078380Y-58142857D02*
X119078380Y-58714285D01*
X119078380Y-58428571D02*
X118078380Y-58428571D01*
X118221238Y-58523809D01*
X118316476Y-58619047D01*
X118364095Y-58714285D01*
X118173619Y-57761904D02*
X118126000Y-57714285D01*
X118078380Y-57619047D01*
X118078380Y-57380952D01*
X118126000Y-57285714D01*
X118173619Y-57238095D01*
X118268857Y-57190476D01*
X118364095Y-57190476D01*
X118506952Y-57238095D01*
X119078380Y-57809523D01*
X119078380Y-57190476D01*
%TO.C,SW19*%
X123780761Y-79809523D02*
X123828380Y-79666666D01*
X123828380Y-79428571D01*
X123780761Y-79333333D01*
X123733142Y-79285714D01*
X123637904Y-79238095D01*
X123542666Y-79238095D01*
X123447428Y-79285714D01*
X123399809Y-79333333D01*
X123352190Y-79428571D01*
X123304571Y-79619047D01*
X123256952Y-79714285D01*
X123209333Y-79761904D01*
X123114095Y-79809523D01*
X123018857Y-79809523D01*
X122923619Y-79761904D01*
X122876000Y-79714285D01*
X122828380Y-79619047D01*
X122828380Y-79380952D01*
X122876000Y-79238095D01*
X122828380Y-78904761D02*
X123828380Y-78666666D01*
X123114095Y-78476190D01*
X123828380Y-78285714D01*
X122828380Y-78047619D01*
X123828380Y-77142857D02*
X123828380Y-77714285D01*
X123828380Y-77428571D02*
X122828380Y-77428571D01*
X122971238Y-77523809D01*
X123066476Y-77619047D01*
X123114095Y-77714285D01*
X123828380Y-76666666D02*
X123828380Y-76476190D01*
X123780761Y-76380952D01*
X123733142Y-76333333D01*
X123590285Y-76238095D01*
X123399809Y-76190476D01*
X123018857Y-76190476D01*
X122923619Y-76238095D01*
X122876000Y-76285714D01*
X122828380Y-76380952D01*
X122828380Y-76571428D01*
X122876000Y-76666666D01*
X122923619Y-76714285D01*
X123018857Y-76761904D01*
X123256952Y-76761904D01*
X123352190Y-76714285D01*
X123399809Y-76666666D01*
X123447428Y-76571428D01*
X123447428Y-76380952D01*
X123399809Y-76285714D01*
X123352190Y-76238095D01*
X123256952Y-76190476D01*
%TO.C,SW2*%
X71530761Y-41333333D02*
X71578380Y-41190476D01*
X71578380Y-40952380D01*
X71530761Y-40857142D01*
X71483142Y-40809523D01*
X71387904Y-40761904D01*
X71292666Y-40761904D01*
X71197428Y-40809523D01*
X71149809Y-40857142D01*
X71102190Y-40952380D01*
X71054571Y-41142857D01*
X71006952Y-41238095D01*
X70959333Y-41285714D01*
X70864095Y-41333333D01*
X70768857Y-41333333D01*
X70673619Y-41285714D01*
X70626000Y-41238095D01*
X70578380Y-41142857D01*
X70578380Y-40904761D01*
X70626000Y-40761904D01*
X70578380Y-40428571D02*
X71578380Y-40190476D01*
X70864095Y-40000000D01*
X71578380Y-39809523D01*
X70578380Y-39571428D01*
X70673619Y-39238095D02*
X70626000Y-39190476D01*
X70578380Y-39095238D01*
X70578380Y-38857142D01*
X70626000Y-38761904D01*
X70673619Y-38714285D01*
X70768857Y-38666666D01*
X70864095Y-38666666D01*
X71006952Y-38714285D01*
X71578380Y-39285714D01*
X71578380Y-38666666D01*
%TO.C,SW16*%
X59655761Y-79809523D02*
X59703380Y-79666666D01*
X59703380Y-79428571D01*
X59655761Y-79333333D01*
X59608142Y-79285714D01*
X59512904Y-79238095D01*
X59417666Y-79238095D01*
X59322428Y-79285714D01*
X59274809Y-79333333D01*
X59227190Y-79428571D01*
X59179571Y-79619047D01*
X59131952Y-79714285D01*
X59084333Y-79761904D01*
X58989095Y-79809523D01*
X58893857Y-79809523D01*
X58798619Y-79761904D01*
X58751000Y-79714285D01*
X58703380Y-79619047D01*
X58703380Y-79380952D01*
X58751000Y-79238095D01*
X58703380Y-78904761D02*
X59703380Y-78666666D01*
X58989095Y-78476190D01*
X59703380Y-78285714D01*
X58703380Y-78047619D01*
X59703380Y-77142857D02*
X59703380Y-77714285D01*
X59703380Y-77428571D02*
X58703380Y-77428571D01*
X58846238Y-77523809D01*
X58941476Y-77619047D01*
X58989095Y-77714285D01*
X58703380Y-76285714D02*
X58703380Y-76476190D01*
X58751000Y-76571428D01*
X58798619Y-76619047D01*
X58941476Y-76714285D01*
X59131952Y-76761904D01*
X59512904Y-76761904D01*
X59608142Y-76714285D01*
X59655761Y-76666666D01*
X59703380Y-76571428D01*
X59703380Y-76380952D01*
X59655761Y-76285714D01*
X59608142Y-76238095D01*
X59512904Y-76190476D01*
X59274809Y-76190476D01*
X59179571Y-76238095D01*
X59131952Y-76285714D01*
X59084333Y-76380952D01*
X59084333Y-76571428D01*
X59131952Y-76666666D01*
X59179571Y-76714285D01*
X59274809Y-76761904D01*
%TO.C,SW26*%
X133280761Y-98809523D02*
X133328380Y-98666666D01*
X133328380Y-98428571D01*
X133280761Y-98333333D01*
X133233142Y-98285714D01*
X133137904Y-98238095D01*
X133042666Y-98238095D01*
X132947428Y-98285714D01*
X132899809Y-98333333D01*
X132852190Y-98428571D01*
X132804571Y-98619047D01*
X132756952Y-98714285D01*
X132709333Y-98761904D01*
X132614095Y-98809523D01*
X132518857Y-98809523D01*
X132423619Y-98761904D01*
X132376000Y-98714285D01*
X132328380Y-98619047D01*
X132328380Y-98380952D01*
X132376000Y-98238095D01*
X132328380Y-97904761D02*
X133328380Y-97666666D01*
X132614095Y-97476190D01*
X133328380Y-97285714D01*
X132328380Y-97047619D01*
X132423619Y-96714285D02*
X132376000Y-96666666D01*
X132328380Y-96571428D01*
X132328380Y-96333333D01*
X132376000Y-96238095D01*
X132423619Y-96190476D01*
X132518857Y-96142857D01*
X132614095Y-96142857D01*
X132756952Y-96190476D01*
X133328380Y-96761904D01*
X133328380Y-96142857D01*
X132328380Y-95285714D02*
X132328380Y-95476190D01*
X132376000Y-95571428D01*
X132423619Y-95619047D01*
X132566476Y-95714285D01*
X132756952Y-95761904D01*
X133137904Y-95761904D01*
X133233142Y-95714285D01*
X133280761Y-95666666D01*
X133328380Y-95571428D01*
X133328380Y-95380952D01*
X133280761Y-95285714D01*
X133233142Y-95238095D01*
X133137904Y-95190476D01*
X132899809Y-95190476D01*
X132804571Y-95238095D01*
X132756952Y-95285714D01*
X132709333Y-95380952D01*
X132709333Y-95571428D01*
X132756952Y-95666666D01*
X132804571Y-95714285D01*
X132899809Y-95761904D01*
%TO.C,SW7*%
X166530761Y-41333333D02*
X166578380Y-41190476D01*
X166578380Y-40952380D01*
X166530761Y-40857142D01*
X166483142Y-40809523D01*
X166387904Y-40761904D01*
X166292666Y-40761904D01*
X166197428Y-40809523D01*
X166149809Y-40857142D01*
X166102190Y-40952380D01*
X166054571Y-41142857D01*
X166006952Y-41238095D01*
X165959333Y-41285714D01*
X165864095Y-41333333D01*
X165768857Y-41333333D01*
X165673619Y-41285714D01*
X165626000Y-41238095D01*
X165578380Y-41142857D01*
X165578380Y-40904761D01*
X165626000Y-40761904D01*
X165578380Y-40428571D02*
X166578380Y-40190476D01*
X165864095Y-40000000D01*
X166578380Y-39809523D01*
X165578380Y-39571428D01*
X165578380Y-39285714D02*
X165578380Y-38619047D01*
X166578380Y-39047619D01*
%TO.C,SW20*%
X142780761Y-79809523D02*
X142828380Y-79666666D01*
X142828380Y-79428571D01*
X142780761Y-79333333D01*
X142733142Y-79285714D01*
X142637904Y-79238095D01*
X142542666Y-79238095D01*
X142447428Y-79285714D01*
X142399809Y-79333333D01*
X142352190Y-79428571D01*
X142304571Y-79619047D01*
X142256952Y-79714285D01*
X142209333Y-79761904D01*
X142114095Y-79809523D01*
X142018857Y-79809523D01*
X141923619Y-79761904D01*
X141876000Y-79714285D01*
X141828380Y-79619047D01*
X141828380Y-79380952D01*
X141876000Y-79238095D01*
X141828380Y-78904761D02*
X142828380Y-78666666D01*
X142114095Y-78476190D01*
X142828380Y-78285714D01*
X141828380Y-78047619D01*
X141923619Y-77714285D02*
X141876000Y-77666666D01*
X141828380Y-77571428D01*
X141828380Y-77333333D01*
X141876000Y-77238095D01*
X141923619Y-77190476D01*
X142018857Y-77142857D01*
X142114095Y-77142857D01*
X142256952Y-77190476D01*
X142828380Y-77761904D01*
X142828380Y-77142857D01*
X141828380Y-76523809D02*
X141828380Y-76428571D01*
X141876000Y-76333333D01*
X141923619Y-76285714D01*
X142018857Y-76238095D01*
X142209333Y-76190476D01*
X142447428Y-76190476D01*
X142637904Y-76238095D01*
X142733142Y-76285714D01*
X142780761Y-76333333D01*
X142828380Y-76428571D01*
X142828380Y-76523809D01*
X142780761Y-76619047D01*
X142733142Y-76666666D01*
X142637904Y-76714285D01*
X142447428Y-76761904D01*
X142209333Y-76761904D01*
X142018857Y-76714285D01*
X141923619Y-76666666D01*
X141876000Y-76619047D01*
X141828380Y-76523809D01*
%TO.C,SW4*%
X109530761Y-41333333D02*
X109578380Y-41190476D01*
X109578380Y-40952380D01*
X109530761Y-40857142D01*
X109483142Y-40809523D01*
X109387904Y-40761904D01*
X109292666Y-40761904D01*
X109197428Y-40809523D01*
X109149809Y-40857142D01*
X109102190Y-40952380D01*
X109054571Y-41142857D01*
X109006952Y-41238095D01*
X108959333Y-41285714D01*
X108864095Y-41333333D01*
X108768857Y-41333333D01*
X108673619Y-41285714D01*
X108626000Y-41238095D01*
X108578380Y-41142857D01*
X108578380Y-40904761D01*
X108626000Y-40761904D01*
X108578380Y-40428571D02*
X109578380Y-40190476D01*
X108864095Y-40000000D01*
X109578380Y-39809523D01*
X108578380Y-39571428D01*
X108911714Y-38761904D02*
X109578380Y-38761904D01*
X108530761Y-39000000D02*
X109245047Y-39238095D01*
X109245047Y-38619047D01*
%TO.C,SW11*%
X100030761Y-60809523D02*
X100078380Y-60666666D01*
X100078380Y-60428571D01*
X100030761Y-60333333D01*
X99983142Y-60285714D01*
X99887904Y-60238095D01*
X99792666Y-60238095D01*
X99697428Y-60285714D01*
X99649809Y-60333333D01*
X99602190Y-60428571D01*
X99554571Y-60619047D01*
X99506952Y-60714285D01*
X99459333Y-60761904D01*
X99364095Y-60809523D01*
X99268857Y-60809523D01*
X99173619Y-60761904D01*
X99126000Y-60714285D01*
X99078380Y-60619047D01*
X99078380Y-60380952D01*
X99126000Y-60238095D01*
X99078380Y-59904761D02*
X100078380Y-59666666D01*
X99364095Y-59476190D01*
X100078380Y-59285714D01*
X99078380Y-59047619D01*
X100078380Y-58142857D02*
X100078380Y-58714285D01*
X100078380Y-58428571D02*
X99078380Y-58428571D01*
X99221238Y-58523809D01*
X99316476Y-58619047D01*
X99364095Y-58714285D01*
X100078380Y-57190476D02*
X100078380Y-57761904D01*
X100078380Y-57476190D02*
X99078380Y-57476190D01*
X99221238Y-57571428D01*
X99316476Y-57666666D01*
X99364095Y-57761904D01*
%TO.C,SW33*%
X142780761Y-117809523D02*
X142828380Y-117666666D01*
X142828380Y-117428571D01*
X142780761Y-117333333D01*
X142733142Y-117285714D01*
X142637904Y-117238095D01*
X142542666Y-117238095D01*
X142447428Y-117285714D01*
X142399809Y-117333333D01*
X142352190Y-117428571D01*
X142304571Y-117619047D01*
X142256952Y-117714285D01*
X142209333Y-117761904D01*
X142114095Y-117809523D01*
X142018857Y-117809523D01*
X141923619Y-117761904D01*
X141876000Y-117714285D01*
X141828380Y-117619047D01*
X141828380Y-117380952D01*
X141876000Y-117238095D01*
X141828380Y-116904761D02*
X142828380Y-116666666D01*
X142114095Y-116476190D01*
X142828380Y-116285714D01*
X141828380Y-116047619D01*
X141828380Y-115761904D02*
X141828380Y-115142857D01*
X142209333Y-115476190D01*
X142209333Y-115333333D01*
X142256952Y-115238095D01*
X142304571Y-115190476D01*
X142399809Y-115142857D01*
X142637904Y-115142857D01*
X142733142Y-115190476D01*
X142780761Y-115238095D01*
X142828380Y-115333333D01*
X142828380Y-115619047D01*
X142780761Y-115714285D01*
X142733142Y-115761904D01*
X141828380Y-114809523D02*
X141828380Y-114190476D01*
X142209333Y-114523809D01*
X142209333Y-114380952D01*
X142256952Y-114285714D01*
X142304571Y-114238095D01*
X142399809Y-114190476D01*
X142637904Y-114190476D01*
X142733142Y-114238095D01*
X142780761Y-114285714D01*
X142828380Y-114380952D01*
X142828380Y-114666666D01*
X142780761Y-114761904D01*
X142733142Y-114809523D01*
%TO.C,SW3*%
X90530761Y-41333333D02*
X90578380Y-41190476D01*
X90578380Y-40952380D01*
X90530761Y-40857142D01*
X90483142Y-40809523D01*
X90387904Y-40761904D01*
X90292666Y-40761904D01*
X90197428Y-40809523D01*
X90149809Y-40857142D01*
X90102190Y-40952380D01*
X90054571Y-41142857D01*
X90006952Y-41238095D01*
X89959333Y-41285714D01*
X89864095Y-41333333D01*
X89768857Y-41333333D01*
X89673619Y-41285714D01*
X89626000Y-41238095D01*
X89578380Y-41142857D01*
X89578380Y-40904761D01*
X89626000Y-40761904D01*
X89578380Y-40428571D02*
X90578380Y-40190476D01*
X89864095Y-40000000D01*
X90578380Y-39809523D01*
X89578380Y-39571428D01*
X89578380Y-39285714D02*
X89578380Y-38666666D01*
X89959333Y-39000000D01*
X89959333Y-38857142D01*
X90006952Y-38761904D01*
X90054571Y-38714285D01*
X90149809Y-38666666D01*
X90387904Y-38666666D01*
X90483142Y-38714285D01*
X90530761Y-38761904D01*
X90578380Y-38857142D01*
X90578380Y-39142857D01*
X90530761Y-39238095D01*
X90483142Y-39285714D01*
%TO.C,SW28*%
X171280761Y-98809523D02*
X171328380Y-98666666D01*
X171328380Y-98428571D01*
X171280761Y-98333333D01*
X171233142Y-98285714D01*
X171137904Y-98238095D01*
X171042666Y-98238095D01*
X170947428Y-98285714D01*
X170899809Y-98333333D01*
X170852190Y-98428571D01*
X170804571Y-98619047D01*
X170756952Y-98714285D01*
X170709333Y-98761904D01*
X170614095Y-98809523D01*
X170518857Y-98809523D01*
X170423619Y-98761904D01*
X170376000Y-98714285D01*
X170328380Y-98619047D01*
X170328380Y-98380952D01*
X170376000Y-98238095D01*
X170328380Y-97904761D02*
X171328380Y-97666666D01*
X170614095Y-97476190D01*
X171328380Y-97285714D01*
X170328380Y-97047619D01*
X170423619Y-96714285D02*
X170376000Y-96666666D01*
X170328380Y-96571428D01*
X170328380Y-96333333D01*
X170376000Y-96238095D01*
X170423619Y-96190476D01*
X170518857Y-96142857D01*
X170614095Y-96142857D01*
X170756952Y-96190476D01*
X171328380Y-96761904D01*
X171328380Y-96142857D01*
X170756952Y-95571428D02*
X170709333Y-95666666D01*
X170661714Y-95714285D01*
X170566476Y-95761904D01*
X170518857Y-95761904D01*
X170423619Y-95714285D01*
X170376000Y-95666666D01*
X170328380Y-95571428D01*
X170328380Y-95380952D01*
X170376000Y-95285714D01*
X170423619Y-95238095D01*
X170518857Y-95190476D01*
X170566476Y-95190476D01*
X170661714Y-95238095D01*
X170709333Y-95285714D01*
X170756952Y-95380952D01*
X170756952Y-95571428D01*
X170804571Y-95666666D01*
X170852190Y-95714285D01*
X170947428Y-95761904D01*
X171137904Y-95761904D01*
X171233142Y-95714285D01*
X171280761Y-95666666D01*
X171328380Y-95571428D01*
X171328380Y-95380952D01*
X171280761Y-95285714D01*
X171233142Y-95238095D01*
X171137904Y-95190476D01*
X170947428Y-95190476D01*
X170852190Y-95238095D01*
X170804571Y-95285714D01*
X170756952Y-95380952D01*
%TO.C,SW15*%
X33530761Y-79809523D02*
X33578380Y-79666666D01*
X33578380Y-79428571D01*
X33530761Y-79333333D01*
X33483142Y-79285714D01*
X33387904Y-79238095D01*
X33292666Y-79238095D01*
X33197428Y-79285714D01*
X33149809Y-79333333D01*
X33102190Y-79428571D01*
X33054571Y-79619047D01*
X33006952Y-79714285D01*
X32959333Y-79761904D01*
X32864095Y-79809523D01*
X32768857Y-79809523D01*
X32673619Y-79761904D01*
X32626000Y-79714285D01*
X32578380Y-79619047D01*
X32578380Y-79380952D01*
X32626000Y-79238095D01*
X32578380Y-78904761D02*
X33578380Y-78666666D01*
X32864095Y-78476190D01*
X33578380Y-78285714D01*
X32578380Y-78047619D01*
X33578380Y-77142857D02*
X33578380Y-77714285D01*
X33578380Y-77428571D02*
X32578380Y-77428571D01*
X32721238Y-77523809D01*
X32816476Y-77619047D01*
X32864095Y-77714285D01*
X32578380Y-76238095D02*
X32578380Y-76714285D01*
X33054571Y-76761904D01*
X33006952Y-76714285D01*
X32959333Y-76619047D01*
X32959333Y-76380952D01*
X33006952Y-76285714D01*
X33054571Y-76238095D01*
X33149809Y-76190476D01*
X33387904Y-76190476D01*
X33483142Y-76238095D01*
X33530761Y-76285714D01*
X33578380Y-76380952D01*
X33578380Y-76619047D01*
X33530761Y-76714285D01*
X33483142Y-76761904D01*
%TO.C,SW22*%
X33530761Y-98809523D02*
X33578380Y-98666666D01*
X33578380Y-98428571D01*
X33530761Y-98333333D01*
X33483142Y-98285714D01*
X33387904Y-98238095D01*
X33292666Y-98238095D01*
X33197428Y-98285714D01*
X33149809Y-98333333D01*
X33102190Y-98428571D01*
X33054571Y-98619047D01*
X33006952Y-98714285D01*
X32959333Y-98761904D01*
X32864095Y-98809523D01*
X32768857Y-98809523D01*
X32673619Y-98761904D01*
X32626000Y-98714285D01*
X32578380Y-98619047D01*
X32578380Y-98380952D01*
X32626000Y-98238095D01*
X32578380Y-97904761D02*
X33578380Y-97666666D01*
X32864095Y-97476190D01*
X33578380Y-97285714D01*
X32578380Y-97047619D01*
X32673619Y-96714285D02*
X32626000Y-96666666D01*
X32578380Y-96571428D01*
X32578380Y-96333333D01*
X32626000Y-96238095D01*
X32673619Y-96190476D01*
X32768857Y-96142857D01*
X32864095Y-96142857D01*
X33006952Y-96190476D01*
X33578380Y-96761904D01*
X33578380Y-96142857D01*
X32673619Y-95761904D02*
X32626000Y-95714285D01*
X32578380Y-95619047D01*
X32578380Y-95380952D01*
X32626000Y-95285714D01*
X32673619Y-95238095D01*
X32768857Y-95190476D01*
X32864095Y-95190476D01*
X33006952Y-95238095D01*
X33578380Y-95809523D01*
X33578380Y-95190476D01*
%TO.C,SW6*%
X147530761Y-41333333D02*
X147578380Y-41190476D01*
X147578380Y-40952380D01*
X147530761Y-40857142D01*
X147483142Y-40809523D01*
X147387904Y-40761904D01*
X147292666Y-40761904D01*
X147197428Y-40809523D01*
X147149809Y-40857142D01*
X147102190Y-40952380D01*
X147054571Y-41142857D01*
X147006952Y-41238095D01*
X146959333Y-41285714D01*
X146864095Y-41333333D01*
X146768857Y-41333333D01*
X146673619Y-41285714D01*
X146626000Y-41238095D01*
X146578380Y-41142857D01*
X146578380Y-40904761D01*
X146626000Y-40761904D01*
X146578380Y-40428571D02*
X147578380Y-40190476D01*
X146864095Y-40000000D01*
X147578380Y-39809523D01*
X146578380Y-39571428D01*
X146578380Y-38761904D02*
X146578380Y-38952380D01*
X146626000Y-39047619D01*
X146673619Y-39095238D01*
X146816476Y-39190476D01*
X147006952Y-39238095D01*
X147387904Y-39238095D01*
X147483142Y-39190476D01*
X147530761Y-39142857D01*
X147578380Y-39047619D01*
X147578380Y-38857142D01*
X147530761Y-38761904D01*
X147483142Y-38714285D01*
X147387904Y-38666666D01*
X147149809Y-38666666D01*
X147054571Y-38714285D01*
X147006952Y-38761904D01*
X146959333Y-38857142D01*
X146959333Y-39047619D01*
X147006952Y-39142857D01*
X147054571Y-39190476D01*
X147149809Y-39238095D01*
%TO.C,J2*%
X187626666Y-32682380D02*
X187626666Y-33396666D01*
X187579047Y-33539523D01*
X187483809Y-33634761D01*
X187340952Y-33682380D01*
X187245714Y-33682380D01*
X188055238Y-32777619D02*
X188102857Y-32730000D01*
X188198095Y-32682380D01*
X188436190Y-32682380D01*
X188531428Y-32730000D01*
X188579047Y-32777619D01*
X188626666Y-32872857D01*
X188626666Y-32968095D01*
X188579047Y-33110952D01*
X188007619Y-33682380D01*
X188626666Y-33682380D01*
%TO.C,SW24*%
X95280761Y-98809523D02*
X95328380Y-98666666D01*
X95328380Y-98428571D01*
X95280761Y-98333333D01*
X95233142Y-98285714D01*
X95137904Y-98238095D01*
X95042666Y-98238095D01*
X94947428Y-98285714D01*
X94899809Y-98333333D01*
X94852190Y-98428571D01*
X94804571Y-98619047D01*
X94756952Y-98714285D01*
X94709333Y-98761904D01*
X94614095Y-98809523D01*
X94518857Y-98809523D01*
X94423619Y-98761904D01*
X94376000Y-98714285D01*
X94328380Y-98619047D01*
X94328380Y-98380952D01*
X94376000Y-98238095D01*
X94328380Y-97904761D02*
X95328380Y-97666666D01*
X94614095Y-97476190D01*
X95328380Y-97285714D01*
X94328380Y-97047619D01*
X94423619Y-96714285D02*
X94376000Y-96666666D01*
X94328380Y-96571428D01*
X94328380Y-96333333D01*
X94376000Y-96238095D01*
X94423619Y-96190476D01*
X94518857Y-96142857D01*
X94614095Y-96142857D01*
X94756952Y-96190476D01*
X95328380Y-96761904D01*
X95328380Y-96142857D01*
X94661714Y-95285714D02*
X95328380Y-95285714D01*
X94280761Y-95523809D02*
X94995047Y-95761904D01*
X94995047Y-95142857D01*
%TO.C,SW30*%
X54905761Y-117809523D02*
X54953380Y-117666666D01*
X54953380Y-117428571D01*
X54905761Y-117333333D01*
X54858142Y-117285714D01*
X54762904Y-117238095D01*
X54667666Y-117238095D01*
X54572428Y-117285714D01*
X54524809Y-117333333D01*
X54477190Y-117428571D01*
X54429571Y-117619047D01*
X54381952Y-117714285D01*
X54334333Y-117761904D01*
X54239095Y-117809523D01*
X54143857Y-117809523D01*
X54048619Y-117761904D01*
X54001000Y-117714285D01*
X53953380Y-117619047D01*
X53953380Y-117380952D01*
X54001000Y-117238095D01*
X53953380Y-116904761D02*
X54953380Y-116666666D01*
X54239095Y-116476190D01*
X54953380Y-116285714D01*
X53953380Y-116047619D01*
X53953380Y-115761904D02*
X53953380Y-115142857D01*
X54334333Y-115476190D01*
X54334333Y-115333333D01*
X54381952Y-115238095D01*
X54429571Y-115190476D01*
X54524809Y-115142857D01*
X54762904Y-115142857D01*
X54858142Y-115190476D01*
X54905761Y-115238095D01*
X54953380Y-115333333D01*
X54953380Y-115619047D01*
X54905761Y-115714285D01*
X54858142Y-115761904D01*
X53953380Y-114523809D02*
X53953380Y-114428571D01*
X54001000Y-114333333D01*
X54048619Y-114285714D01*
X54143857Y-114238095D01*
X54334333Y-114190476D01*
X54572428Y-114190476D01*
X54762904Y-114238095D01*
X54858142Y-114285714D01*
X54905761Y-114333333D01*
X54953380Y-114428571D01*
X54953380Y-114523809D01*
X54905761Y-114619047D01*
X54858142Y-114666666D01*
X54762904Y-114714285D01*
X54572428Y-114761904D01*
X54334333Y-114761904D01*
X54143857Y-114714285D01*
X54048619Y-114666666D01*
X54001000Y-114619047D01*
X53953380Y-114523809D01*
D11*
%TO.C,SW9*%
X71835000Y-52015000D02*
X71835000Y-65985000D01*
X57865000Y-65985000D02*
X57865000Y-52015000D01*
X57865000Y-52015000D02*
X71835000Y-52015000D01*
X71835000Y-65985000D02*
X57865000Y-65985000D01*
%TO.C,SW25*%
X114765000Y-90015000D02*
X128735000Y-90015000D01*
X128735000Y-103985000D02*
X114765000Y-103985000D01*
X114765000Y-103985000D02*
X114765000Y-90015000D01*
X128735000Y-90015000D02*
X128735000Y-103985000D01*
%TO.C,SW10*%
X95485000Y-52015000D02*
X95485000Y-65985000D01*
X95485000Y-65985000D02*
X81515000Y-65985000D01*
X81515000Y-65985000D02*
X81515000Y-52015000D01*
X81515000Y-52015000D02*
X95485000Y-52015000D01*
%TO.C,SW13*%
X152485000Y-65985000D02*
X138515000Y-65985000D01*
X138515000Y-52015000D02*
X152485000Y-52015000D01*
X138515000Y-65985000D02*
X138515000Y-52015000D01*
X152485000Y-52015000D02*
X152485000Y-65985000D01*
%TO.C,SW5*%
X142985000Y-46985000D02*
X129015000Y-46985000D01*
X142985000Y-33015000D02*
X142985000Y-46985000D01*
X129015000Y-33015000D02*
X142985000Y-33015000D01*
X129015000Y-46985000D02*
X129015000Y-33015000D01*
%TO.C,SW34*%
X171765000Y-109015000D02*
X185735000Y-109015000D01*
X171765000Y-122985000D02*
X171765000Y-109015000D01*
X185735000Y-122985000D02*
X171765000Y-122985000D01*
X185735000Y-109015000D02*
X185735000Y-122985000D01*
%TO.C,SW8*%
X47985000Y-52015000D02*
X47985000Y-65985000D01*
X34015000Y-65985000D02*
X34015000Y-52015000D01*
X34015000Y-52015000D02*
X47985000Y-52015000D01*
X47985000Y-65985000D02*
X34015000Y-65985000D01*
%TO.C,SW18*%
X105265000Y-84985000D02*
X105265000Y-71015000D01*
X105265000Y-71015000D02*
X119235000Y-71015000D01*
X119235000Y-71015000D02*
X119235000Y-84985000D01*
X119235000Y-84985000D02*
X105265000Y-84985000D01*
%TO.C,SW32*%
X116860000Y-109015000D02*
X116860000Y-122985000D01*
X102890000Y-122985000D02*
X102890000Y-109015000D01*
X102890000Y-109015000D02*
X116860000Y-109015000D01*
X116860000Y-122985000D02*
X102890000Y-122985000D01*
%TO.C,SW27*%
X152765000Y-103985000D02*
X152765000Y-90015000D01*
X166735000Y-90015000D02*
X166735000Y-103985000D01*
X166735000Y-103985000D02*
X152765000Y-103985000D01*
X152765000Y-90015000D02*
X166735000Y-90015000D01*
%TO.C,SW1*%
X66985000Y-46985000D02*
X53015000Y-46985000D01*
X53015000Y-33015000D02*
X66985000Y-33015000D01*
X66985000Y-33015000D02*
X66985000Y-46985000D01*
X53015000Y-46985000D02*
X53015000Y-33015000D01*
%TO.C,SW21*%
X162265000Y-71015000D02*
X176235000Y-71015000D01*
X176235000Y-84985000D02*
X162265000Y-84985000D01*
X162265000Y-84985000D02*
X162265000Y-71015000D01*
X176235000Y-71015000D02*
X176235000Y-84985000D01*
%TO.C,SW17*%
X100235000Y-84985000D02*
X86265000Y-84985000D01*
X100235000Y-71015000D02*
X100235000Y-84985000D01*
X86265000Y-84985000D02*
X86265000Y-71015000D01*
X86265000Y-71015000D02*
X100235000Y-71015000D01*
%TO.C,SW14*%
X157515000Y-65985000D02*
X157515000Y-52015000D01*
X171485000Y-65985000D02*
X157515000Y-65985000D01*
X157515000Y-52015000D02*
X171485000Y-52015000D01*
X171485000Y-52015000D02*
X171485000Y-65985000D01*
%TO.C,J1*%
X204410000Y-36830000D02*
X204410000Y-64830000D01*
X204410000Y-36830000D02*
X207070000Y-36830000D01*
X204410000Y-35560000D02*
X204410000Y-34230000D01*
X204410000Y-64830000D02*
X207070000Y-64830000D01*
X204410000Y-34230000D02*
X205740000Y-34230000D01*
X207070000Y-36830000D02*
X207070000Y-64830000D01*
%TO.C,SW29*%
X34015000Y-109015000D02*
X47985000Y-109015000D01*
X47985000Y-109015000D02*
X47985000Y-122985000D01*
X34015000Y-122985000D02*
X34015000Y-109015000D01*
X47985000Y-122985000D02*
X34015000Y-122985000D01*
%TO.C,SW31*%
X79140000Y-109015000D02*
X93110000Y-109015000D01*
X93110000Y-109015000D02*
X93110000Y-122985000D01*
X93110000Y-122985000D02*
X79140000Y-122985000D01*
X79140000Y-122985000D02*
X79140000Y-109015000D01*
%TO.C,SW23*%
X78860000Y-103985000D02*
X64890000Y-103985000D01*
X78860000Y-90015000D02*
X78860000Y-103985000D01*
X64890000Y-90015000D02*
X78860000Y-90015000D01*
X64890000Y-103985000D02*
X64890000Y-90015000D01*
%TO.C,SW12*%
X119515000Y-65985000D02*
X119515000Y-52015000D01*
X133485000Y-65985000D02*
X119515000Y-65985000D01*
X133485000Y-52015000D02*
X133485000Y-65985000D01*
X119515000Y-52015000D02*
X133485000Y-52015000D01*
%TO.C,SW19*%
X138235000Y-84985000D02*
X124265000Y-84985000D01*
X124265000Y-71015000D02*
X138235000Y-71015000D01*
X124265000Y-84985000D02*
X124265000Y-71015000D01*
X138235000Y-71015000D02*
X138235000Y-84985000D01*
%TO.C,SW2*%
X85985000Y-46985000D02*
X72015000Y-46985000D01*
X72015000Y-46985000D02*
X72015000Y-33015000D01*
X72015000Y-33015000D02*
X85985000Y-33015000D01*
X85985000Y-33015000D02*
X85985000Y-46985000D01*
%TO.C,SW16*%
X60140000Y-84985000D02*
X60140000Y-71015000D01*
X74110000Y-71015000D02*
X74110000Y-84985000D01*
X74110000Y-84985000D02*
X60140000Y-84985000D01*
X60140000Y-71015000D02*
X74110000Y-71015000D01*
%TO.C,SW26*%
X147735000Y-90015000D02*
X147735000Y-103985000D01*
X147735000Y-103985000D02*
X133765000Y-103985000D01*
X133765000Y-103985000D02*
X133765000Y-90015000D01*
X133765000Y-90015000D02*
X147735000Y-90015000D01*
%TO.C,SW7*%
X167015000Y-33015000D02*
X180985000Y-33015000D01*
X180985000Y-33015000D02*
X180985000Y-46985000D01*
X180985000Y-46985000D02*
X167015000Y-46985000D01*
X167015000Y-46985000D02*
X167015000Y-33015000D01*
%TO.C,SW20*%
X157235000Y-84985000D02*
X143265000Y-84985000D01*
X157235000Y-71015000D02*
X157235000Y-84985000D01*
X143265000Y-84985000D02*
X143265000Y-71015000D01*
X143265000Y-71015000D02*
X157235000Y-71015000D01*
%TO.C,SW4*%
X110015000Y-46985000D02*
X110015000Y-33015000D01*
X110015000Y-33015000D02*
X123985000Y-33015000D01*
X123985000Y-46985000D02*
X110015000Y-46985000D01*
X123985000Y-33015000D02*
X123985000Y-46985000D01*
%TO.C,SW11*%
X100515000Y-65985000D02*
X100515000Y-52015000D01*
X114485000Y-65985000D02*
X100515000Y-65985000D01*
X114485000Y-52015000D02*
X114485000Y-65985000D01*
X100515000Y-52015000D02*
X114485000Y-52015000D01*
%TO.C,SW33*%
X143265000Y-109015000D02*
X157235000Y-109015000D01*
X157235000Y-122985000D02*
X143265000Y-122985000D01*
X157235000Y-109015000D02*
X157235000Y-122985000D01*
X143265000Y-122985000D02*
X143265000Y-109015000D01*
%TO.C,SW3*%
X104985000Y-33015000D02*
X104985000Y-46985000D01*
X91015000Y-46985000D02*
X91015000Y-33015000D01*
X91015000Y-33015000D02*
X104985000Y-33015000D01*
X104985000Y-46985000D02*
X91015000Y-46985000D01*
%TO.C,SW28*%
X185735000Y-103985000D02*
X171765000Y-103985000D01*
X171765000Y-90015000D02*
X185735000Y-90015000D01*
X171765000Y-103985000D02*
X171765000Y-90015000D01*
X185735000Y-90015000D02*
X185735000Y-103985000D01*
%TO.C,SW15*%
X34015000Y-71015000D02*
X47985000Y-71015000D01*
X47985000Y-71015000D02*
X47985000Y-84985000D01*
X47985000Y-84985000D02*
X34015000Y-84985000D01*
X34015000Y-84985000D02*
X34015000Y-71015000D01*
%TO.C,SW22*%
X47985000Y-90015000D02*
X47985000Y-103985000D01*
X47985000Y-103985000D02*
X34015000Y-103985000D01*
X34015000Y-90015000D02*
X47985000Y-90015000D01*
X34015000Y-103985000D02*
X34015000Y-90015000D01*
%TO.C,SW6*%
X148015000Y-46985000D02*
X148015000Y-33015000D01*
X161985000Y-33015000D02*
X161985000Y-46985000D01*
X148015000Y-33015000D02*
X161985000Y-33015000D01*
X161985000Y-46985000D02*
X148015000Y-46985000D01*
%TO.C,J2*%
X189290000Y-36830000D02*
X189290000Y-64830000D01*
X186630000Y-36830000D02*
X189290000Y-36830000D01*
X186630000Y-36830000D02*
X186630000Y-64830000D01*
X186630000Y-64830000D02*
X189290000Y-64830000D01*
X186630000Y-35560000D02*
X186630000Y-34230000D01*
X186630000Y-34230000D02*
X187960000Y-34230000D01*
%TO.C,SW24*%
X109735000Y-103985000D02*
X95765000Y-103985000D01*
X95765000Y-90015000D02*
X109735000Y-90015000D01*
X95765000Y-103985000D02*
X95765000Y-90015000D01*
X109735000Y-90015000D02*
X109735000Y-103985000D01*
%TO.C,SW30*%
X55390000Y-109015000D02*
X69360000Y-109015000D01*
X69360000Y-122985000D02*
X55390000Y-122985000D01*
X55390000Y-122985000D02*
X55390000Y-109015000D01*
X69360000Y-109015000D02*
X69360000Y-122985000D01*
%TD*%
M02*
