M48
; DRILL file {KiCad (6.0.4)} date Thu 31 Mar 2022 08:58:14 AM PDT
; FORMAT={-:-/ absolute / inch / decimal}
; #@! TF.CreationDate,2022-03-31T08:58:14-07:00
; #@! TF.GenerationSoftware,Kicad,Pcbnew,(6.0.4)
; #@! TF.FileFunction,MixedPlating,1,2
FMAT,2
INCH
; #@! TA.AperFunction,Plated,PTH,ViaDrill
T1C0.0157
; #@! TA.AperFunction,Plated,PTH,ComponentDrill
T2C0.0236
; #@! TA.AperFunction,Plated,PTH,ComponentDrill
T3C0.0394
; #@! TA.AperFunction,Plated,PTH,ComponentDrill
T4C0.0591
; #@! TA.AperFunction,NonPlated,NPTH,ComponentDrill
T5C0.0472
; #@! TA.AperFunction,NonPlated,NPTH,ComponentDrill
T6C0.1575
%
G90
G05
T1
X1.9935Y-1.6435
X2.836Y-1.736
X3.6583Y-1.8417
X4.4063Y-1.8437
X5.1543Y-1.8457
X5.9Y-1.8
T3
X7.4Y-1.4
X7.4Y-1.5
X7.4Y-1.6
X7.4Y-1.7
X7.4Y-1.8
X7.4Y-1.9
X7.4Y-2.0
X7.4Y-2.1
X7.4Y-2.2
X7.4Y-2.3
X7.4Y-2.4
X7.4Y-2.5
X8.1Y-1.4
X8.1Y-1.5
X8.1Y-1.6
X8.1Y-1.7
X8.1Y-1.8
X8.1Y-1.9
X8.1Y-2.0
X8.1Y-2.1
X8.1Y-2.2
X8.1Y-2.3
X8.1Y-2.4
X8.1Y-2.5
T4
X1.4142Y-2.2228
X1.4142Y-2.9709
X1.4142Y-3.7189
X1.4142Y-4.4669
X1.5142Y-2.4728
X1.5142Y-3.2209
X1.5142Y-3.9689
X1.5142Y-4.7169
X2.1622Y-1.4748
X2.2557Y-4.4669
X2.2622Y-1.7248
X2.3531Y-2.2228
X2.3557Y-4.7169
X2.4427Y-2.9709
X2.4531Y-2.4728
X2.5427Y-3.2209
X2.6297Y-3.7189
X2.7297Y-3.9689
X2.9102Y-1.4748
X3.0102Y-1.7248
X3.1907Y-4.4669
X3.2843Y-2.2228
X3.2907Y-4.7169
X3.3843Y-2.4728
X3.4713Y-2.9709
X3.5713Y-3.2209
X3.6583Y-1.4748
X3.7583Y-1.7248
X3.8453Y-3.7189
X3.9453Y-3.9689
X4.0323Y-2.2228
X4.1258Y-4.4669
X4.1323Y-2.4728
X4.2193Y-2.9709
X4.2258Y-4.7169
X4.3193Y-3.2209
X4.4063Y-1.4748
X4.5063Y-1.7248
X4.5933Y-3.7189
X4.6933Y-3.9689
X4.7803Y-2.2228
X4.8803Y-2.4728
X4.9673Y-2.9709
X5.0673Y-3.2209
X5.1543Y-1.4748
X5.2543Y-1.7248
X5.3413Y-3.7189
X5.4413Y-3.9689
X5.5283Y-2.2228
X5.6283Y-2.4728
X5.7154Y-2.9709
X5.7154Y-4.4669
X5.8154Y-3.2209
X5.8154Y-4.7169
X5.9024Y-1.4748
X6.0024Y-1.7248
X6.0894Y-3.7189
X6.1894Y-3.9689
X6.2764Y-2.2228
X6.3764Y-2.4728
X6.4634Y-2.9709
X6.5634Y-3.2209
X6.6504Y-1.4748
X6.7504Y-1.7248
X6.8374Y-3.7189
X6.8374Y-4.4669
X6.9374Y-3.9689
X6.9374Y-4.7169
T5
X7.6579Y-3.45
X7.9335Y-3.45
T6
X1.6142Y-2.3228
X1.6142Y-3.0709
X1.6142Y-3.8189
X1.6142Y-4.5669
X2.3622Y-1.5748
X2.4557Y-4.5669
X2.5531Y-2.3228
X2.6427Y-3.0709
X2.8297Y-3.8189
X3.1102Y-1.5748
X3.3907Y-4.5669
X3.4843Y-2.3228
X3.6713Y-3.0709
X3.8583Y-1.5748
X4.0453Y-3.8189
X4.2323Y-2.3228
X4.3258Y-4.5669
X4.4193Y-3.0709
X4.6063Y-1.5748
X4.7933Y-3.8189
X4.9803Y-2.3228
X5.1673Y-3.0709
X5.3543Y-1.5748
X5.5413Y-3.8189
X5.7283Y-2.3228
X5.9154Y-3.0709
X5.9154Y-4.5669
X6.1024Y-1.5748
X6.2894Y-3.8189
X6.4764Y-2.3228
X6.6634Y-3.0709
X6.8504Y-1.5748
X7.0374Y-3.8189
X7.0374Y-4.5669
T2
G00X7.6618Y-3.3634
M15
G01X7.6382Y-3.3634
M16
G05
G00X7.7209Y-3.5406
M15
G01X7.6972Y-3.5406
M16
G05
G00X7.8783Y-3.5406
M15
G01X7.8547Y-3.5406
M16
G05
G00X7.9965Y-3.324
M15
G01X7.9728Y-3.324
M16
G05
G00X7.9965Y-3.5406
M15
G01X7.9728Y-3.5406
M16
G05
T0
M30
