M48
; DRILL file {KiCad (6.0.4)} date Thu 31 Mar 2022 09:00:30 AM PDT
; FORMAT={-:-/ absolute / inch / decimal}
; #@! TF.CreationDate,2022-03-31T09:00:30-07:00
; #@! TF.GenerationSoftware,Kicad,Pcbnew,(6.0.4)
; #@! TF.FileFunction,MixedPlating,1,2
FMAT,2
INCH
; #@! TA.AperFunction,Plated,PTH,ViaDrill
T1C0.0157
; #@! TA.AperFunction,Plated,PTH,ComponentDrill
T2C0.0236
; #@! TA.AperFunction,Plated,PTH,ComponentDrill
T3C0.0394
; #@! TA.AperFunction,Plated,PTH,ComponentDrill
T4C0.0591
; #@! TA.AperFunction,NonPlated,NPTH,ComponentDrill
T5C0.0472
; #@! TA.AperFunction,NonPlated,NPTH,ComponentDrill
T6C0.1575
%
G90
G05
T1
X1.4Y-2.3622
X2.311Y-1.75
X3.3955Y-1.8455
X4.0945Y-1.8945
X4.7935Y-1.9435
X5.4925Y-1.9925
X6.1915Y-2.0415
X6.8934Y-3.9934
X6.9Y-2.55
X7.8673Y-2.0827
T3
X1.0Y-1.4
X1.0Y-1.5
X1.0Y-1.6
X1.0Y-1.7
X1.0Y-1.8
X1.0Y-1.9
X1.0Y-2.0
X1.0Y-2.1
X1.0Y-2.2
X1.0Y-2.3
X1.0Y-2.4
X1.0Y-2.5
X1.7Y-1.4
X1.7Y-1.5
X1.7Y-1.6
X1.7Y-1.7
X1.7Y-1.8
X1.7Y-1.9
X1.7Y-2.0
X1.7Y-2.1
X1.7Y-2.2
X1.7Y-2.3
X1.7Y-2.4
X1.7Y-2.5
T4
X2.1571Y-4.4169
X2.2571Y-4.6669
X2.3441Y-2.1728
X2.4441Y-2.4228
X2.5311Y-2.9209
X2.6311Y-3.1709
X2.7181Y-1.4248
X2.8181Y-1.6748
X2.9051Y-3.6689
X3.0051Y-3.9189
X3.0921Y-2.1728
X3.1921Y-2.4228
X3.2791Y-2.9209
X3.2791Y-4.4169
X3.3791Y-3.1709
X3.3791Y-4.6669
X3.4661Y-1.4248
X3.5661Y-1.6748
X3.6531Y-3.6689
X3.7531Y-3.9189
X3.8402Y-2.1728
X3.9402Y-2.4228
X4.0272Y-2.9209
X4.1272Y-3.1709
X4.2142Y-1.4248
X4.3142Y-1.6748
X4.4012Y-3.6689
X4.5012Y-3.9189
X4.5882Y-2.1728
X4.6882Y-2.4228
X4.7752Y-2.9209
X4.8752Y-3.1709
X4.9622Y-1.4248
X5.0557Y-4.4169
X5.0622Y-1.6748
X5.1492Y-3.6689
X5.1557Y-4.6669
X5.2492Y-3.9189
X5.3362Y-2.1728
X5.4362Y-2.4228
X5.5232Y-2.9209
X5.6232Y-3.1709
X5.7102Y-1.4248
X5.8102Y-1.6748
X5.8972Y-3.6689
X5.9907Y-4.4169
X5.9972Y-3.9189
X6.0843Y-2.1728
X6.0907Y-4.6669
X6.1843Y-2.4228
X6.2713Y-2.9209
X6.3713Y-3.1709
X6.4583Y-1.4248
X6.5583Y-1.6748
X6.8323Y-2.1728
X6.9258Y-4.4169
X6.9323Y-2.4228
X7.0258Y-4.6669
X7.2998Y-3.6689
X7.3998Y-3.9189
X7.4868Y-2.9209
X7.5803Y-1.4248
X7.5868Y-3.1709
X7.6803Y-1.6748
X7.7673Y-2.1728
X7.8608Y-4.4169
X7.8673Y-2.4228
X7.9608Y-4.6669
T5
X1.1665Y-3.4252
X1.4421Y-3.4252
T6
X2.0571Y-4.5669
X2.2441Y-2.3228
X2.4311Y-3.0709
X2.6181Y-1.5748
X2.8051Y-3.8189
X2.9921Y-2.3228
X3.1791Y-3.0709
X3.1791Y-4.5669
X3.3661Y-1.5748
X3.5531Y-3.8189
X3.7402Y-2.3228
X3.9272Y-3.0709
X4.1142Y-1.5748
X4.3012Y-3.8189
X4.4882Y-2.3228
X4.6752Y-3.0709
X4.8622Y-1.5748
X4.9557Y-4.5669
X5.0492Y-3.8189
X5.2362Y-2.3228
X5.4232Y-3.0709
X5.6102Y-1.5748
X5.7972Y-3.8189
X5.8907Y-4.5669
X5.9843Y-2.3228
X6.1713Y-3.0709
X6.3583Y-1.5748
X6.7323Y-2.3228
X6.8258Y-4.5669
X7.1998Y-3.8189
X7.3868Y-3.0709
X7.4803Y-1.5748
X7.6673Y-2.3228
X7.7608Y-4.5669
T2
G00X1.1035Y-3.3346
M15
G01X1.1272Y-3.3346
M16
G05
G00X1.1035Y-3.5512
M15
G01X1.1272Y-3.5512
M16
G05
G00X1.2217Y-3.3346
M15
G01X1.2453Y-3.3346
M16
G05
G00X1.3791Y-3.3346
M15
G01X1.4028Y-3.3346
M16
G05
G00X1.4382Y-3.5118
M15
G01X1.4618Y-3.5118
M16
G05
T0
M30
