%TF.GenerationSoftware,KiCad,Pcbnew,(6.0.4)*%
%TF.CreationDate,2022-03-31T09:00:27-07:00*%
%TF.ProjectId,hip-factor-3-r,6869702d-6661-4637-946f-722d332d722e,rev?*%
%TF.SameCoordinates,Original*%
%TF.FileFunction,Soldermask,Top*%
%TF.FilePolarity,Negative*%
%FSLAX46Y46*%
G04 Gerber Fmt 4.6, Leading zero omitted, Abs format (unit mm)*
G04 Created by KiCad (PCBNEW (6.0.4)) date 2022-03-31 09:00:27*
%MOMM*%
%LPD*%
G01*
G04 APERTURE LIST*
%ADD10C,4.000000*%
%ADD11C,2.200000*%
%ADD12R,1.700000X1.700000*%
%ADD13O,1.700000X1.700000*%
%ADD14C,1.200000*%
%ADD15O,2.000000X1.400000*%
%ADD16R,2.000000X1.400000*%
G04 APERTURE END LIST*
D10*
%TO.C,SW9*%
X76000000Y-59000000D03*
D11*
X81080000Y-61540000D03*
X78540000Y-55190000D03*
%TD*%
D10*
%TO.C,SW25*%
X128250000Y-97000000D03*
D11*
X133330000Y-99540000D03*
X130790000Y-93190000D03*
%TD*%
D10*
%TO.C,SW10*%
X95000000Y-59000000D03*
D11*
X100080000Y-61540000D03*
X97540000Y-55190000D03*
%TD*%
D10*
%TO.C,SW13*%
X152000000Y-59000000D03*
D11*
X157080000Y-61540000D03*
X154540000Y-55190000D03*
%TD*%
D10*
%TO.C,SW5*%
X142500000Y-40000000D03*
D11*
X147580000Y-42540000D03*
X145040000Y-36190000D03*
%TD*%
D10*
%TO.C,SW34*%
X197125000Y-116000000D03*
D11*
X202205000Y-118540000D03*
X199665000Y-112190000D03*
%TD*%
D10*
%TO.C,SW8*%
X57000000Y-59000000D03*
D11*
X62080000Y-61540000D03*
X59540000Y-55190000D03*
%TD*%
D10*
%TO.C,SW18*%
X118750000Y-78000000D03*
D11*
X123830000Y-80540000D03*
X121290000Y-74190000D03*
%TD*%
D10*
%TO.C,SW32*%
X149625000Y-116000000D03*
D11*
X154705000Y-118540000D03*
X152165000Y-112190000D03*
%TD*%
D10*
%TO.C,SW27*%
X171000000Y-59000000D03*
D11*
X176080000Y-61540000D03*
X173540000Y-55190000D03*
%TD*%
D10*
%TO.C,SW1*%
X66500000Y-40000000D03*
D11*
X71580000Y-42540000D03*
X69040000Y-36190000D03*
%TD*%
D10*
%TO.C,SW21*%
X187625000Y-78000000D03*
D11*
X192705000Y-80540000D03*
X190165000Y-74190000D03*
%TD*%
D10*
%TO.C,SW17*%
X99750000Y-78000000D03*
D11*
X104830000Y-80540000D03*
X102290000Y-74190000D03*
%TD*%
D10*
%TO.C,SW14*%
X194750000Y-59000000D03*
D11*
X199830000Y-61540000D03*
X197290000Y-55190000D03*
%TD*%
D12*
%TO.C,J1*%
X43180000Y-35560000D03*
D13*
X43180000Y-38100000D03*
X43180000Y-40640000D03*
X43180000Y-43180000D03*
X43180000Y-45720000D03*
X43180000Y-48260000D03*
X43180000Y-50800000D03*
X43180000Y-53340000D03*
X43180000Y-55880000D03*
X43180000Y-58420000D03*
X43180000Y-60960000D03*
X43180000Y-63500000D03*
%TD*%
D10*
%TO.C,SW29*%
X52250000Y-116000000D03*
D11*
X57330000Y-118540000D03*
X54790000Y-112190000D03*
%TD*%
D10*
%TO.C,SW31*%
X125875000Y-116000000D03*
D11*
X130955000Y-118540000D03*
X128415000Y-112190000D03*
%TD*%
D10*
%TO.C,SW23*%
X90250000Y-97000000D03*
D11*
X95330000Y-99540000D03*
X92790000Y-93190000D03*
%TD*%
D10*
%TO.C,SW12*%
X133000000Y-59000000D03*
D11*
X138080000Y-61540000D03*
X135540000Y-55190000D03*
%TD*%
D10*
%TO.C,SW19*%
X137750000Y-78000000D03*
D11*
X142830000Y-80540000D03*
X140290000Y-74190000D03*
%TD*%
D10*
%TO.C,SW2*%
X85500000Y-40000000D03*
D11*
X90580000Y-42540000D03*
X88040000Y-36190000D03*
%TD*%
D10*
%TO.C,SW16*%
X80750000Y-78000000D03*
D11*
X85830000Y-80540000D03*
X83290000Y-74190000D03*
%TD*%
D10*
%TO.C,SW26*%
X147250000Y-97000000D03*
D11*
X152330000Y-99540000D03*
X149790000Y-93190000D03*
%TD*%
D10*
%TO.C,SW7*%
X190000000Y-40000000D03*
D11*
X195080000Y-42540000D03*
X192540000Y-36190000D03*
%TD*%
D10*
%TO.C,SW20*%
X156750000Y-78000000D03*
D11*
X161830000Y-80540000D03*
X159290000Y-74190000D03*
%TD*%
D10*
%TO.C,SW4*%
X123500000Y-40000000D03*
D11*
X128580000Y-42540000D03*
X126040000Y-36190000D03*
%TD*%
D10*
%TO.C,SW11*%
X114000000Y-59000000D03*
D11*
X119080000Y-61540000D03*
X116540000Y-55190000D03*
%TD*%
D10*
%TO.C,SW33*%
X173375000Y-116000000D03*
D11*
X178455000Y-118540000D03*
X175915000Y-112190000D03*
%TD*%
D10*
%TO.C,SW3*%
X104500000Y-40000000D03*
D11*
X109580000Y-42540000D03*
X107040000Y-36190000D03*
%TD*%
D10*
%TO.C,SW28*%
X182875000Y-97000000D03*
D11*
X187955000Y-99540000D03*
X185415000Y-93190000D03*
%TD*%
D10*
%TO.C,SW15*%
X61750000Y-78000000D03*
D11*
X66830000Y-80540000D03*
X64290000Y-74190000D03*
%TD*%
D10*
%TO.C,SW22*%
X71250000Y-97000000D03*
D11*
X76330000Y-99540000D03*
X73790000Y-93190000D03*
%TD*%
D10*
%TO.C,SW6*%
X161500000Y-40000000D03*
D11*
X166580000Y-42540000D03*
X164040000Y-36190000D03*
%TD*%
D12*
%TO.C,J2*%
X25400000Y-35560000D03*
D13*
X25400000Y-38100000D03*
X25400000Y-40640000D03*
X25400000Y-43180000D03*
X25400000Y-45720000D03*
X25400000Y-48260000D03*
X25400000Y-50800000D03*
X25400000Y-53340000D03*
X25400000Y-55880000D03*
X25400000Y-58420000D03*
X25400000Y-60960000D03*
X25400000Y-63500000D03*
%TD*%
D10*
%TO.C,SW24*%
X109250000Y-97000000D03*
D11*
X114330000Y-99540000D03*
X111790000Y-93190000D03*
%TD*%
D10*
%TO.C,SW30*%
X80750000Y-116000000D03*
D11*
X85830000Y-118540000D03*
X83290000Y-112190000D03*
%TD*%
D14*
%TO.C,J3*%
X36630000Y-87000000D03*
X29630000Y-87000000D03*
D15*
X28330000Y-90200000D03*
X31330000Y-84700000D03*
X28330000Y-84700000D03*
X36830000Y-89200000D03*
D16*
X35330000Y-84700000D03*
%TD*%
M02*
